<?xml version="1.0" encoding="UTF-8"?>
<svg width="512px" height="384px" viewBox="0 0 512 384" version="1.1" xmlns="http://www.w3.org/2000/svg" xmlns:xlink="http://www.w3.org/1999/xlink">
    <!-- Generator: Sketch 43.1 (39012) - http://www.bohemiancoding.com/sketch -->
    <title>envelope</title>
    <desc>Created with Sketch.</desc>
    <defs></defs>
    <g id="Page-1" stroke="none" stroke-width="1" fill="none" fill-rule="evenodd">
        <g id="envelope" fill-rule="nonzero" fill="#FFFFFF">
            <path d="M502.3,126.8 C506.2,123.7 512,126.6 512,131.5 L512,336 C512,362.5 490.5,384 464,384 L48,384 C21.5,384 0,362.5 0,336 L0,131.6 C0,126.6 5.7,123.8 9.7,126.9 C32.1,144.3 61.8,166.4 163.8,240.5 C184.9,255.9 220.5,288.3 256,288.1 C291.7,288.4 328,255.3 348.3,240.5 C450.3,166.4 479.9,144.2 502.3,126.8 Z M256,256 C279.2,256.4 312.6,226.8 329.4,214.6 C462.1,118.3 472.2,109.9 502.8,85.9 C508.6,81.4 512,74.4 512,67 L512,48 C512,21.5 490.5,2.84217094e-14 464,2.84217094e-14 L48,2.84217094e-14 C21.5,0 0,21.5 0,48 L0,67 C0,74.4 3.4,81.3 9.2,85.9 C39.8,109.8 49.9,118.3 182.6,214.6 C199.4,226.8 232.8,256.4 256,256 Z" id="Shape"></path>
        </g>
    </g>
</svg>