<?xml version="1.0" encoding="UTF-8"?>
<svg width="50px" height="26px" viewBox="0 0 50 26" version="1.1" xmlns="http://www.w3.org/2000/svg" xmlns:xlink="http://www.w3.org/1999/xlink">
    <!-- Generator: Sketch 43.1 (39012) - http://www.bohemiancoding.com/sketch -->
    <title>logo</title>
    <desc>Created with Sketch.</desc>
    <defs></defs>
    <g id="Page-1" stroke="none" stroke-width="1" fill="none" fill-rule="evenodd">
        <g id="logo" fill-rule="nonzero" fill="#FFFFFF">
            <polygon id="Shape" points="20.119 10.094 13.965 10.094 13.965 6.979 18.396 6.979 18.396 5.273 13.965 5.273 13.965 2.16 20.119 2.16 20.119 0.454 12.148 0.454 12.148 11.8 20.119 11.8"></polygon>
            <path d="M19.977,15.024 C19.384,14.441 18.634,14.201 17.376,14.201 L17.374,14.201 L15.486,14.201 L15.484,14.201 C14.226,14.201 13.475,14.441 12.882,15.024 C12.302,15.579 12.084,16.311 12.084,17.603 L12.084,22.145 C12.084,23.434 12.302,24.17 12.882,24.731 C13.475,25.307 14.226,25.545 15.484,25.545 L15.486,25.545 L17.374,25.545 L17.376,25.545 C18.634,25.545 19.384,25.307 19.977,24.731 C20.557,24.17 20.776,23.434 20.776,22.145 L20.776,17.603 C20.775,16.312 20.557,15.579 19.977,15.024 Z M18.959,21.803 C18.959,22.857 18.891,23.211 18.616,23.504 C18.346,23.776 18.027,23.84 16.92,23.84 L15.94,23.84 C14.833,23.84 14.513,23.777 14.244,23.504 C13.969,23.211 13.901,22.857 13.901,21.803 L13.901,17.949 C13.901,16.888 13.968,16.533 14.244,16.245 C14.514,15.977 14.833,15.906 15.94,15.906 L16.919,15.906 C18.026,15.906 18.346,15.977 18.615,16.245 C18.889,16.533 18.958,16.889 18.958,17.949 L18.958,21.803 L18.959,21.803 Z" id="Shape"></path>
            <path d="M29.525,1.277 C28.933,0.694 28.182,0.454 26.924,0.454 L26.922,0.454 L21.944,0.454 L21.944,11.8 L26.922,11.8 L26.924,11.8 C28.182,11.8 28.933,11.561 29.525,10.986 C30.105,10.425 30.324,9.689 30.324,8.399 L30.324,3.857 C30.324,2.565 30.105,1.832 29.525,1.277 Z M28.507,8.056 C28.507,9.111 28.441,9.464 28.165,9.758 C27.895,10.03 27.576,10.094 26.469,10.094 L23.762,10.094 L23.762,2.16 L26.469,2.16 C27.576,2.16 27.896,2.23 28.165,2.498 C28.44,2.786 28.507,3.142 28.507,4.202 L28.507,8.056 Z" id="Shape"></path>
            <polygon id="Shape" points="38.891 2.16 38.891 0.454 31.711 0.454 31.711 2.16 34.393 2.16 34.393 10.094 31.711 10.094 31.711 11.8 38.891 11.8 38.891 10.094 36.209 10.094 36.209 2.16"></polygon>
            <path d="M48.619,5.558 L46.494,0.954 C46.368,0.658 46.081,0.454 45.747,0.454 L43.478,0.454 C43.144,0.454 42.857,0.658 42.73,0.954 L40.606,5.558 C40.496,5.799 40.422,6.073 40.422,6.357 L40.422,11.8 L42.239,11.8 L42.239,8.686 L46.984,8.686 L46.984,11.8 L48.8,11.8 L48.8,6.357 C48.802,6.072 48.729,5.799 48.619,5.558 Z M46.985,6.979 L42.24,6.979 L42.24,6.243 L44.164,2.16 L45.061,2.16 L46.985,6.243 L46.985,6.979 Z" id="Shape"></path>
            <polygon id="Shape" points="29.195 19.883 24.449 14.201 22.633 14.201 22.633 25.546 24.449 25.546 24.449 16.746 29.195 22.429 29.195 25.546 31.012 25.546 31.012 14.201 29.195 14.201"></polygon>
            <path d="M46.177,19.062 C44.888,18.506 43.524,17.994 43.524,17.084 C43.524,16.458 44.01,15.906 44.622,15.906 L47.116,15.906 C47.73,15.906 48.216,16.403 48.216,17.006 L48.216,17.304 L50,17.304 L50,17.065 C50,15.488 48.705,14.202 47.115,14.202 L44.693,14.202 C43.107,14.202 41.817,15.497 41.817,17.085 C41.817,19.118 43.964,19.957 45.64,20.687 C46.93,21.243 48.294,21.755 48.294,22.665 C48.294,23.291 47.808,23.842 47.195,23.842 L44.701,23.842 C44.088,23.842 43.601,23.346 43.601,22.743 L43.601,22.445 L41.816,22.445 L41.816,22.684 C41.816,24.261 43.112,25.547 44.701,25.547 L47.123,25.547 C48.709,25.547 49.999,24.252 49.999,22.664 C50,20.63 47.853,19.791 46.177,19.062 Z" id="Shape"></path>
            <polygon id="Shape" points="36.43 19.813 41.266 14.201 38.885 14.201 34.969 19.021 34.969 14.201 33.152 14.201 33.152 25.546 34.969 25.546 34.969 20.727 39.055 25.546 41.487 25.546"></polygon>
            <polyline id="Shape" points="8.379 3.326 5.834 6.979 4.361 6.979 1.816 3.326 1.816 11.8 0 11.8 0 0.454 1.816 0.454 5.099 5.164 8.379 0.454 10.196 0.454 10.196 11.8 8.379 11.8 8.379 3.326"></polyline>
            <polyline id="Shape" points="8.379 17.073 5.834 20.727 4.361 20.727 1.816 17.073 1.816 25.546 0 25.546 0 14.201 1.816 14.201 5.099 18.911 8.379 14.201 10.196 14.201 10.196 25.546 8.379 25.546 8.379 17.073"></polyline>
        </g>
    </g>
</svg>